HIERARCHY
ROOT Hips
{
	OFFSET 0.000000 121.760803 0.000000
	CHANNELS 6 Xposition Yposition Zposition Xrotation Yrotation Zrotation 
	JOINT Spine
	{
		OFFSET 0.072000 7.257294 -0.789700
		CHANNELS 3 Xrotation Yrotation Zrotation
		JOINT Spine1
		{
			OFFSET 0.000000 12.508769 -0.658067
			CHANNELS 3 Xrotation Yrotation Zrotation
			JOINT Spine1_split
			{
				OFFSET 0.000000 12.508769 -0.658067
				CHANNELS 3 Xrotation Yrotation Zrotation
				JOINT Spine2
				{
					OFFSET 0.000000 12.508769 -0.658067
					CHANNELS 3 Xrotation Yrotation Zrotation
					JOINT Neck
					{
						OFFSET 0.000000 14.033295 7.520400
						CHANNELS 3 Xrotation Yrotation Zrotation
						JOINT Head
						{
							OFFSET 0.000000 8.198502 5.703100
							CHANNELS 3 Xrotation Yrotation Zrotation
							JOINT HeadTop_End
							{
								OFFSET 0.000000 17.760803 13.332701
								CHANNELS 3 Xrotation Yrotation Zrotation
								End Site
								{
									OFFSET 0.000000 0.000000 0.000000
								}
							}
						}
					}
					JOINT LeftShoulder
					{
						OFFSET 6.292450 5.785301 -0.669000
						CHANNELS 3 Xrotation Yrotation Zrotation
						JOINT LeftShoulder_split
						{
							OFFSET 6.292450 5.785301 -0.669000
							CHANNELS 3 Xrotation Yrotation Zrotation
							JOINT LeftArm
							{
								OFFSET 13.907140 -6.093903 1.965100
								CHANNELS 3 Xrotation Yrotation Zrotation
								JOINT LeftForeArm
								{
									OFFSET 34.140198 0.000000 0.000000
									CHANNELS 3 Xrotation Yrotation Zrotation
									JOINT LeftHand
									{
										OFFSET 40.960209 0.000000 0.000000
										CHANNELS 3 Xrotation Yrotation Zrotation
										JOINT LeftHandThumb1
										{
											OFFSET 10.006996 -7.170425 9.573125
											CHANNELS 3 Xrotation Yrotation Zrotation
											JOINT LeftHandThumb2
											{
												OFFSET 1.835007 -1.059448 1.059443
												CHANNELS 3 Xrotation Yrotation Zrotation
												JOINT LeftHandThumb3
												{
													OFFSET 2.112267 -1.219513 1.219518
													CHANNELS 3 Xrotation Yrotation Zrotation
													JOINT LeftHandThumb4
													{
														OFFSET 4.843811 -2.796570 2.796576
														CHANNELS 3 Xrotation Yrotation Zrotation
														End Site
														{
															OFFSET 0.000000 0.000000 0.000000
														}
													}
												}
											}
										}
										JOINT LeftHandIndex1
										{
											OFFSET 18.389847 -0.922348 4.596882
											CHANNELS 3 Xrotation Yrotation Zrotation
											JOINT LeftHandIndex2
											{
												OFFSET 4.711273 0.000000 0.000000
												CHANNELS 3 Xrotation Yrotation Zrotation
												JOINT LeftHandIndex3
												{
													OFFSET 2.886131 0.000000 0.000000
													CHANNELS 3 Xrotation Yrotation Zrotation
													JOINT LeftHandIndex4
													{
														OFFSET 6.145912 0.000000 0.000000
														CHANNELS 3 Xrotation Yrotation Zrotation
														End Site
														{
															OFFSET 0.000000 0.000000 0.000000
														}
													}
												}
											}
										}
										JOINT LeftHandMiddle1
										{
											OFFSET 18.013008 0.000000 0.000000
											CHANNELS 3 Xrotation Yrotation Zrotation
											JOINT LeftHandMiddle2
											{
												OFFSET 4.946693 0.000000 0.000000
												CHANNELS 3 Xrotation Yrotation Zrotation
												JOINT LeftHandMiddle3
												{
													OFFSET 3.342232 0.000000 0.000000
													CHANNELS 3 Xrotation Yrotation Zrotation
													JOINT LeftHandMiddle4
													{
														OFFSET 4.461754 0.000000 0.000000
														CHANNELS 3 Xrotation Yrotation Zrotation
														End Site
														{
															OFFSET 0.000000 0.000000 0.000000
														}
													}
												}
											}
										}
										JOINT LeftHandRing1
										{
											OFFSET 15.849892 -0.102921 -4.126150
											CHANNELS 3 Xrotation Yrotation Zrotation
											JOINT LeftHandRing2
											{
												OFFSET 3.527054 0.000000 0.000000
												CHANNELS 3 Xrotation Yrotation Zrotation
												JOINT LeftHandRing3
												{
													OFFSET 2.961098 0.000000 0.000000
													CHANNELS 3 Xrotation Yrotation Zrotation
													JOINT LeftHandRing4
													{
														OFFSET 4.927200 0.000000 0.000000
														CHANNELS 3 Xrotation Yrotation Zrotation
														End Site
														{
															OFFSET 0.000000 0.000000 0.000000
														}
													}
												}
											}
										}
										JOINT LeftHandPinky1
										{
											OFFSET 12.791824 -0.832031 -6.799156
											CHANNELS 3 Xrotation Yrotation Zrotation
											JOINT LeftHandPinky2
											{
												OFFSET 3.327133 0.000000 0.000000
												CHANNELS 3 Xrotation Yrotation Zrotation
												JOINT LeftHandPinky3
												{
													OFFSET 3.014900 0.000000 0.000000
													CHANNELS 3 Xrotation Yrotation Zrotation
													JOINT LeftHandPinky4
													{
														OFFSET 5.847786 0.000000 0.000000
														CHANNELS 3 Xrotation Yrotation Zrotation
														End Site
														{
															OFFSET 0.000000 0.000000 0.000000
														}
													}
												}
											}
										}
									}
								}
							}
						}
					}
					JOINT RightShoulder
					{
						OFFSET -6.292450 5.785301 -0.669000
						CHANNELS 3 Xrotation Yrotation Zrotation
						JOINT RightShoulder_split
						{
							OFFSET -6.292450 5.785301 -0.669000
							CHANNELS 3 Xrotation Yrotation Zrotation
							JOINT RightArm
							{
								OFFSET -13.907140 -6.093903 1.965100
								CHANNELS 3 Xrotation Yrotation Zrotation
								JOINT RightForeArm
								{
									OFFSET -34.140198 0.000000 0.000000
									CHANNELS 3 Xrotation Yrotation Zrotation
									JOINT RightHand
									{
										OFFSET -40.960209 0.000000 0.000000
										CHANNELS 3 Xrotation Yrotation Zrotation
										JOINT RightHandThumb1
										{
											OFFSET -10.007050 -7.170456 9.573117
											CHANNELS 3 Xrotation Yrotation Zrotation
											JOINT RightHandThumb2
											{
												OFFSET -1.835007 -1.059448 1.059443
												CHANNELS 3 Xrotation Yrotation Zrotation
												JOINT RightHandThumb3
												{
													OFFSET -2.112267 -1.219513 1.219518
													CHANNELS 3 Xrotation Yrotation Zrotation
													JOINT RightHandThumb4
													{
														OFFSET -4.843834 -2.796585 2.796590
														CHANNELS 3 Xrotation Yrotation Zrotation
														End Site
														{
															OFFSET 0.000000 0.000000 0.000000
														}
													}
												}
											}
										}
										JOINT RightHandIndex1
										{
											OFFSET -18.389870 -0.922424 4.596786
											CHANNELS 3 Xrotation Yrotation Zrotation
											JOINT RightHandIndex2
											{
												OFFSET -4.711273 0.000000 0.000000
												CHANNELS 3 Xrotation Yrotation Zrotation
												JOINT RightHandIndex3
												{
													OFFSET -2.886131 0.000000 0.000000
													CHANNELS 3 Xrotation Yrotation Zrotation
													JOINT RightHandIndex4
													{
														OFFSET -6.145920 0.000000 0.000000
														CHANNELS 3 Xrotation Yrotation Zrotation
														End Site
														{
															OFFSET 0.000000 0.000000 0.000000
														}
													}
												}
											}
										}
										JOINT RightHandMiddle1
										{
											OFFSET -18.013008 0.000000 0.000000
											CHANNELS 3 Xrotation Yrotation Zrotation
											JOINT RightHandMiddle2
											{
												OFFSET -4.946693 0.000000 0.000000
												CHANNELS 3 Xrotation Yrotation Zrotation
												JOINT RightHandMiddle3
												{
													OFFSET -3.342232 0.000000 0.000000
													CHANNELS 3 Xrotation Yrotation Zrotation
													JOINT RightHandMiddle4
													{
														OFFSET -4.461754 0.000000 0.000000
														CHANNELS 3 Xrotation Yrotation Zrotation
														End Site
														{
															OFFSET 0.000000 0.000000 0.000000
														}
													}
												}
											}
										}
										JOINT RightHandRing1
										{
											OFFSET -15.849876 -0.102936 -4.126237
											CHANNELS 3 Xrotation Yrotation Zrotation
											JOINT RightHandRing2
											{
												OFFSET -3.527054 0.000000 0.000000
												CHANNELS 3 Xrotation Yrotation Zrotation
												JOINT RightHandRing3
												{
													OFFSET -2.961098 0.000000 0.000000
													CHANNELS 3 Xrotation Yrotation Zrotation
													JOINT RightHandRing4
													{
														OFFSET -4.927200 0.000000 0.000000
														CHANNELS 3 Xrotation Yrotation Zrotation
														End Site
														{
															OFFSET 0.000000 0.000000 0.000000
														}
													}
												}
											}
										}
										JOINT RightHandPinky1
										{
											OFFSET -12.791786 -0.832077 -6.799222
											CHANNELS 3 Xrotation Yrotation Zrotation
											JOINT RightHandPinky2
											{
												OFFSET -3.327133 0.000000 0.000000
												CHANNELS 3 Xrotation Yrotation Zrotation
												JOINT RightHandPinky3
												{
													OFFSET -3.014900 0.000000 0.000000
													CHANNELS 3 Xrotation Yrotation Zrotation
													JOINT RightHandPinky4
													{
														OFFSET -5.847786 0.000000 0.000000
														CHANNELS 3 Xrotation Yrotation Zrotation
														End Site
														{
															OFFSET 0.000000 0.000000 0.000000
														}
													}
												}
											}
										}
									}
								}
							}
						}
					}
				}
			}
		}
	}
	JOINT LeftUpLeg
	{
		OFFSET 13.026900 -6.336304 -1.092800
		CHANNELS 3 Xrotation Yrotation Zrotation
		JOINT LeftLeg
		{
			OFFSET 0.524474 -46.096886 9.782700
			CHANNELS 3 Xrotation Yrotation Zrotation
			JOINT LeftFoot
			{
				OFFSET -0.524474 -53.427422 -12.948200
				CHANNELS 3 Xrotation Yrotation Zrotation
				JOINT LeftToeBase
				{
					OFFSET 0.192200 -14.009700 16.364100
					CHANNELS 3 Xrotation Yrotation Zrotation
					JOINT LeftToe_End
					{
						OFFSET -1.784700 -0.561700 9.474800
						CHANNELS 3 Xrotation Yrotation Zrotation
						End Site
						{
							OFFSET 0.000000 0.000000 0.000000
						}
					}
				}
			}
		}
	}
	JOINT RightUpLeg
	{
		OFFSET -12.883000 -6.336304 -1.092800
		CHANNELS 3 Xrotation Yrotation Zrotation
		JOINT RightLeg
		{
			OFFSET -0.524587 -46.096825 9.782800
			CHANNELS 3 Xrotation Yrotation Zrotation
			JOINT RightFoot
			{
				OFFSET 0.524587 -53.427383 -12.948300
				CHANNELS 3 Xrotation Yrotation Zrotation
				JOINT RightToeBase
				{
					OFFSET -0.192200 -14.009700 16.364100
					CHANNELS 3 Xrotation Yrotation Zrotation
					JOINT RightToe_End
					{
						OFFSET 1.784700 -0.561700 9.474800
						CHANNELS 3 Xrotation Yrotation Zrotation
						End Site
						{
							OFFSET 0.000000 0.000000 0.000000
						}
					}
				}
			}
		}
	}
}
MOTION
Frames: 4
Frame Time: 0.016667
11.712582 115.590431 17.734322 -1.293249 6.166288 -4.604753 9.975040 -1.690624 2.064759 1.871315 -1.420406 1.481033 0.000000 0.000000 0.000000 -3.085456 -1.618651 0.047467 -2.263183 -2.413853 6.433473 -4.853450 1.032563 -5.132382 -0.000000 0.000000 0.000000 1.744051 -3.421884 -0.743977 0.000000 0.000000 0.000000 -7.039689 -12.744834 -76.199995 9.887309 -11.719665 -4.534074 1.706393 -0.532269 7.848854 -4.356454 11.023689 11.798673 5.431345 10.003929 0.349304 2.355749 8.701267 3.488046 0.000001 -0.000001 -0.000002 2.289866 -1.111367 -15.774149 -0.017006 0.156537 -19.489084 0.028094 0.100551 -17.333789 -0.000003 0.000001 -0.000001 -0.324412 0.423832 -19.903214 0.047037 0.327319 -24.651823 0.030628 0.022112 -16.327494 -0.000002 0.000001 0.000003 -1.103107 2.349904 -19.788687 -0.026225 0.169238 -29.078277 0.072880 0.343787 -19.212873 0.000001 0.000002 0.000001 -3.158372 2.690860 -30.313387 0.023806 0.128491 -31.162738 0.016068 0.068048 -20.716169 -0.000001 -0.000001 0.000000 2.245580 4.208255 6.197043 0.000000 0.000000 0.000000 0.519970 4.376569 72.028819 11.172625 15.288352 2.172148 -7.832651 -0.659885 -5.101833 -0.466449 -9.625982 -6.004464 7.286154 -11.588858 1.091605 1.069342 -8.364375 -4.888900 0.000000 0.000002 0.000003 2.690313 -4.660464 9.914394 -0.045372 -0.188961 19.171735 -0.054444 -0.137532 15.239843 0.000001 -0.000001 -0.000001 -1.689185 -5.560294 14.804555 0.093468 -0.624785 27.014815 -0.054123 -0.066173 12.554005 -0.000000 -0.000001 0.000000 -4.593416 -8.836038 12.400040 -0.024341 -0.323704 32.805884 0.109080 -0.661934 16.280623 0.000000 -0.000001 0.000003 -6.446322 -8.951899 24.517932 0.067056 -0.215932 34.229070 -0.039958 -0.085662 15.915123 0.000000 0.000001 0.000001 1.728511 10.951133 7.901464 17.858112 -7.447282 -0.403710 -19.427544 2.076347 -0.479562 -0.000034 0.013867 0.000002 0.000000 0.000000 -0.000000 -31.625425 -6.738955 -2.605434 31.022453 0.054758 1.153369 0.504084 0.633173 7.004440 2.226791 -0.483389 -0.382522 0.000000 0.000000 0.000000 
11.726747 115.737297 18.748667 -1.164184 6.252300 -4.918417 10.169097 -1.727028 2.130112 1.658268 -1.547289 1.654123 0.000000 0.000000 0.000000 -3.099211 -1.728067 0.284328 -2.452574 -2.344112 6.184121 -4.954938 1.081390 -5.347817 0.000000 0.000000 0.000000 1.747727 -3.049442 -1.011632 0.000000 0.000000 0.000000 -6.924671 -13.420952 -75.877842 9.745416 -12.188613 -4.775197 2.092398 -0.946459 8.152638 -4.383284 11.106647 11.775338 5.357294 9.945689 0.408955 2.400803 8.693754 3.424679 -0.000001 -0.000001 -0.000002 2.245788 -1.355902 -16.178054 -0.017968 0.152860 -19.607400 0.027505 0.097601 -17.537563 -0.000001 -0.000002 -0.000004 -0.299593 0.156418 -20.277018 0.045367 0.314813 -24.655767 0.030732 0.021993 -16.638669 -0.000000 0.000003 0.000000 -1.047560 1.972705 -20.300109 -0.026421 0.162941 -29.050997 0.072291 0.330193 -19.513483 0.000001 -0.000001 0.000002 -3.136080 2.284608 -30.597994 0.022758 0.123701 -31.167256 0.015597 0.065778 -21.044796 0.000001 -0.000001 -0.000000 2.286454 4.046476 5.957245 0.000000 0.000000 0.000000 0.577120 4.140633 72.193508 11.311821 15.036769 2.556854 -7.641443 -0.666293 -5.228123 -0.468198 -9.956641 -5.963568 7.202586 -11.575615 0.986477 1.041519 -8.110845 -4.736261 -0.000000 -0.000001 0.000001 2.686111 -4.470807 10.325772 -0.045355 -0.188982 19.198523 -0.053886 -0.137543 15.382546 0.000000 0.000000 -0.000001 -1.600191 -5.334340 15.148407 0.090087 -0.605976 26.848413 -0.052980 -0.067488 12.825182 0.000001 -0.000000 0.000001 -4.387621 -8.479943 12.961559 -0.024760 -0.313823 32.544926 0.107961 -0.641841 16.519345 -0.000000 -0.000002 -0.000001 -6.273535 -8.522923 24.848121 0.066311 -0.215091 34.010784 -0.038957 -0.087146 16.250174 -0.000000 0.000000 -0.000001 2.648767 10.842099 8.168243 16.885522 -7.302326 -0.399541 -19.538868 2.150907 -0.678666 -0.052558 -0.020435 0.045004 -0.000000 -0.000001 0.000000 -30.983924 -7.015554 -2.003358 26.959347 1.115071 1.149740 -0.366322 0.589640 6.852094 2.364057 -0.968599 -0.548124 -0.000000 -0.000000 -0.000000 
11.707076 115.868591 19.759077 -1.020562 6.378868 -5.183553 10.262689 -1.768897 2.230562 1.530881 -1.655980 1.713172 0.000000 0.000000 0.000000 -3.029678 -1.822409 0.405165 -2.777379 -2.362638 6.163047 -5.001021 1.132729 -5.650764 -0.000000 0.000000 0.000000 1.734721 -2.975679 -1.007657 0.000000 0.000000 0.000000 -6.950076 -13.745415 -75.686890 9.739465 -12.702267 -4.881113 2.520965 -1.552536 8.466071 -4.410153 11.189400 11.752210 5.283381 9.887556 0.468338 2.445791 8.686163 3.361422 -0.000002 0.000001 0.000001 2.198442 -1.599450 -16.581473 -0.018964 0.149180 -19.725579 0.026871 0.094637 -17.741008 -0.000001 0.000002 -0.000000 -0.278366 -0.110839 -20.650194 0.043779 0.302358 -24.659701 0.030871 0.021893 -16.950206 -0.000003 0.000001 -0.000004 -0.999208 1.595599 -20.811890 -0.026627 0.156632 -29.023656 0.071613 0.316712 -19.815248 -0.000001 -0.000003 -0.000002 -3.117939 1.878822 -30.880368 0.021725 0.118985 -31.171764 0.015129 0.063566 -21.374039 -0.000000 -0.000001 -0.000001 2.341270 3.697851 6.000391 0.000000 0.000000 0.000000 0.577669 4.244793 72.228479 11.271326 14.839597 2.930557 -7.640644 -0.677190 -5.414277 -0.470742 -10.343831 -5.916544 7.104726 -11.559896 0.863572 1.008564 -7.813849 -4.557847 -0.000002 -0.000002 -0.000001 2.674554 -4.239834 10.801755 -0.045334 -0.189001 19.226334 -0.053271 -0.137590 15.546247 -0.000001 -0.000000 -0.000001 -1.500432 -5.066630 15.545458 0.086123 -0.583992 26.650859 -0.051677 -0.069043 13.139768 0.000001 -0.000001 -0.000001 -4.154879 -8.063588 13.611063 -0.025334 -0.302244 32.236765 0.106419 -0.616171 16.796197 -0.000000 0.000001 0.000005 -6.074245 -8.029414 25.226238 0.065574 -0.214072 33.752923 -0.038352 -0.087492 16.640031 0.000000 0.000001 -0.000002 3.449597 10.670135 8.427914 16.064972 -7.121557 -0.394673 -19.521220 2.200448 -0.905408 -0.246217 -0.053490 0.095354 -0.000000 -0.000000 -0.000000 -30.268475 -7.272917 -1.470688 22.990171 2.135842 1.187269 -1.163313 0.692527 6.220430 2.816723 -1.971481 -0.307399 -0.000000 0.000000 -0.000000 
11.669359 115.968155 20.793892 -0.819254 6.542679 -5.424041 10.391957 -1.812643 2.228469 1.273627 -1.788264 1.884379 0.000000 0.000000 0.000000 -3.086571 -1.937610 0.641755 -2.875668 -2.328186 5.878670 -5.125605 1.143904 -5.846473 -0.000000 0.000000 -0.000000 1.738331 -2.704594 -1.152259 0.000000 0.000000 0.000000 -6.991230 -14.055431 -75.556420 10.158543 -13.161983 -4.994912 2.946568 -2.051325 8.656901 -4.437004 11.271952 11.729142 5.209706 9.829537 0.527484 2.490601 8.678543 3.298328 0.000004 0.000002 0.000003 2.147820 -1.841615 -16.983771 -0.019990 0.145571 -19.843349 0.026200 0.091703 -17.943809 -0.000001 -0.000002 -0.000001 -0.260711 -0.377519 -21.022091 0.042240 0.289962 -24.663608 0.030981 0.021783 -17.261807 0.000002 -0.000000 -0.000003 -0.958148 1.219231 -21.323499 -0.026837 0.150376 -28.996298 0.070793 0.303404 -20.117829 -0.000001 0.000003 -0.000002 -3.103782 1.474196 -31.160638 0.020717 0.114287 -31.176340 0.014601 0.061361 -21.703809 0.000000 0.000000 0.000001 2.373053 3.408514 5.817491 0.000000 0.000000 0.000000 0.773669 4.237542 72.357385 11.267696 14.704965 3.217598 -7.714446 -0.569652 -5.519633 -0.474381 -10.781635 -5.864779 6.994168 -11.541836 0.724844 0.970876 -7.478081 -4.356681 0.000000 -0.000003 0.000000 2.654089 -3.972521 11.335045 -0.045300 -0.189013 19.255053 -0.052592 -0.137636 15.728461 0.000001 -0.000001 0.000002 -1.393031 -4.761476 15.989235 0.081607 -0.559095 26.425474 -0.050147 -0.070786 13.492929 -0.000000 -0.000000 0.000003 -3.902717 -7.591993 14.337124 -0.025856 -0.289225 31.886738 0.103941 -0.588749 17.106798 0.000000 0.000000 0.000000 -5.854045 -7.477578 25.644958 0.064654 -0.212899 33.459908 -0.037786 -0.087789 17.078594 0.000000 -0.000000 -0.000000 4.100962 10.514783 8.722765 15.387687 -7.113566 -0.452993 -19.460896 2.321925 -1.089850 -0.520109 -0.085377 0.174240 0.000000 0.000001 0.000000 -29.664669 -7.479866 -1.239190 19.342513 2.431655 1.466768 -1.816739 1.058584 5.745959 3.396844 -1.816950 -0.258561 0.000000 -0.000000 -0.000000 
